<svg width="500" height="500" viewBox="0 0 500 500" fill="none" xmlns="http://www.w3.org/2000/svg">
<path d="M213.163 193.459C221.401 166.109 239.011 142.536 262.901 126.879C286.791 111.222 315.434 104.483 343.799 107.844C372.164 111.206 398.438 124.453 418.007 145.261C437.576 166.068 449.188 193.104 450.805 221.622C452.422 250.14 443.94 278.315 426.849 301.201C409.757 324.087 385.149 340.22 357.346 346.766C329.543 353.312 300.322 349.854 274.815 336.998C249.308 324.142 229.146 302.711 217.869 276.467" stroke="url(#paint0_linear_1_2)" stroke-width="4"/>
<path d="M35.0141 217.528C35.0141 219.083 34.6474 220.549 33.9141 221.928C33.1807 223.307 32.0074 224.436 30.3941 225.316C28.7807 226.167 26.7127 226.592 24.1901 226.592H18.6461V239H13.6301V208.42H24.1901C26.5367 208.42 28.5167 208.831 30.1301 209.652C31.7727 210.444 32.9901 211.529 33.7821 212.908C34.6034 214.287 35.0141 215.827 35.0141 217.528ZM24.1901 222.5C26.0967 222.5 27.5194 222.075 28.4581 221.224C29.3967 220.344 29.8661 219.112 29.8661 217.528C29.8661 214.184 27.9741 212.512 24.1901 212.512H18.6461V222.5H24.1901ZM49.786 208.42C53.042 208.42 55.8874 209.051 58.322 210.312C60.786 211.544 62.678 213.333 63.998 215.68C65.3474 217.997 66.022 220.711 66.022 223.82C66.022 226.929 65.3474 229.628 63.998 231.916C62.678 234.204 60.786 235.964 58.322 237.196C55.8874 238.399 53.042 239 49.786 239H39.798V208.42H49.786ZM49.786 234.908C53.3647 234.908 56.1074 233.94 58.014 232.004C59.9207 230.068 60.874 227.34 60.874 223.82C60.874 220.271 59.9207 217.499 58.014 215.504C56.1074 213.509 53.3647 212.512 49.786 212.512H44.814V234.908H49.786ZM88.9894 208.42V212.512H76.0094V221.532H86.1294V225.624H76.0094V239H70.9934V208.42H88.9894ZM115.056 208.42C118.312 208.42 121.157 209.051 123.592 210.312C126.056 211.544 127.948 213.333 129.268 215.68C130.617 217.997 131.292 220.711 131.292 223.82C131.292 226.929 130.617 229.628 129.268 231.916C127.948 234.204 126.056 235.964 123.592 237.196C121.157 238.399 118.312 239 115.056 239H105.068V208.42H115.056ZM115.056 234.908C118.634 234.908 121.377 233.94 123.284 232.004C125.19 230.068 126.144 227.34 126.144 223.82C126.144 220.271 125.19 217.499 123.284 215.504C121.377 213.509 118.634 212.512 115.056 212.512H110.084V234.908H115.056ZM134.591 226.768C134.591 224.333 135.09 222.177 136.087 220.3C137.114 218.423 138.492 216.971 140.223 215.944C141.983 214.888 143.919 214.36 146.031 214.36C147.938 214.36 149.595 214.741 151.003 215.504C152.44 216.237 153.584 217.161 154.435 218.276V214.756H159.495V239H154.435V235.392C153.584 236.536 152.426 237.489 150.959 238.252C149.492 239.015 147.82 239.396 145.943 239.396C143.86 239.396 141.954 238.868 140.223 237.812C138.492 236.727 137.114 235.231 136.087 233.324C135.09 231.388 134.591 229.203 134.591 226.768ZM154.435 226.856C154.435 225.184 154.083 223.732 153.379 222.5C152.704 221.268 151.81 220.329 150.695 219.684C149.58 219.039 148.378 218.716 147.087 218.716C145.796 218.716 144.594 219.039 143.479 219.684C142.364 220.3 141.455 221.224 140.751 222.456C140.076 223.659 139.739 225.096 139.739 226.768C139.739 228.44 140.076 229.907 140.751 231.168C141.455 232.429 142.364 233.397 143.479 234.072C144.623 234.717 145.826 235.04 147.087 235.04C148.378 235.04 149.58 234.717 150.695 234.072C151.81 233.427 152.704 232.488 153.379 231.256C154.083 229.995 154.435 228.528 154.435 226.856ZM171.935 218.848V232.268C171.935 233.177 172.141 233.837 172.551 234.248C172.991 234.629 173.725 234.82 174.751 234.82H177.831V239H173.871C171.613 239 169.882 238.472 168.679 237.416C167.477 236.36 166.875 234.644 166.875 232.268V218.848H164.015V214.756H166.875V208.728H171.935V214.756H177.831V218.848H171.935ZM204.674 226.284C204.674 227.193 204.616 228.015 204.498 228.748H185.974C186.121 230.684 186.84 232.239 188.13 233.412C189.421 234.585 191.005 235.172 192.882 235.172C195.581 235.172 197.488 234.043 198.602 231.784H204.014C203.281 234.013 201.946 235.847 200.01 237.284C198.104 238.692 195.728 239.396 192.882 239.396C190.565 239.396 188.482 238.883 186.634 237.856C184.816 236.8 183.378 235.333 182.322 233.456C181.296 231.549 180.782 229.349 180.782 226.856C180.782 224.363 181.281 222.177 182.278 220.3C183.305 218.393 184.728 216.927 186.546 215.9C188.394 214.873 190.506 214.36 192.882 214.36C195.17 214.36 197.209 214.859 198.998 215.856C200.788 216.853 202.181 218.261 203.178 220.08C204.176 221.869 204.674 223.937 204.674 226.284ZM199.438 224.7C199.409 222.852 198.749 221.371 197.458 220.256C196.168 219.141 194.569 218.584 192.662 218.584C190.932 218.584 189.45 219.141 188.218 220.256C186.986 221.341 186.253 222.823 186.018 224.7H199.438ZM236.924 239L229.884 226.768H226.056V239H221.04V208.42H231.6C233.947 208.42 235.927 208.831 237.54 209.652C239.183 210.473 240.4 211.573 241.192 212.952C242.014 214.331 242.424 215.871 242.424 217.572C242.424 219.567 241.838 221.385 240.664 223.028C239.52 224.641 237.746 225.741 235.34 226.328L242.908 239H236.924ZM226.056 222.764H231.6C233.478 222.764 234.886 222.295 235.824 221.356C236.792 220.417 237.276 219.156 237.276 217.572C237.276 215.988 236.807 214.756 235.868 213.876C234.93 212.967 233.507 212.512 231.6 212.512H226.056V222.764ZM271.061 226.284C271.061 227.193 271.002 228.015 270.885 228.748H252.361C252.508 230.684 253.226 232.239 254.517 233.412C255.808 234.585 257.392 235.172 259.269 235.172C261.968 235.172 263.874 234.043 264.989 231.784H270.401C269.668 234.013 268.333 235.847 266.397 237.284C264.49 238.692 262.114 239.396 259.269 239.396C256.952 239.396 254.869 238.883 253.021 237.856C251.202 236.8 249.765 235.333 248.709 233.456C247.682 231.549 247.169 229.349 247.169 226.856C247.169 224.363 247.668 222.177 248.665 220.3C249.692 218.393 251.114 216.927 252.933 215.9C254.781 214.873 256.893 214.36 259.269 214.36C261.557 214.36 263.596 214.859 265.385 215.856C267.174 216.853 268.568 218.261 269.565 220.08C270.562 221.869 271.061 223.937 271.061 226.284ZM265.825 224.7C265.796 222.852 265.136 221.371 263.845 220.256C262.554 219.141 260.956 218.584 259.049 218.584C257.318 218.584 255.837 219.141 254.605 220.256C253.373 221.341 252.64 222.823 252.405 224.7H265.825ZM285.369 234.512L292.233 214.756H297.557L288.317 239H282.333L273.137 214.756H278.505L285.369 234.512ZM323.569 226.284C323.569 227.193 323.51 228.015 323.393 228.748H304.869C305.015 230.684 305.734 232.239 307.025 233.412C308.315 234.585 309.899 235.172 311.777 235.172C314.475 235.172 316.382 234.043 317.497 231.784H322.909C322.175 234.013 320.841 235.847 318.905 237.284C316.998 238.692 314.622 239.396 311.777 239.396C309.459 239.396 307.377 238.883 305.529 237.856C303.71 236.8 302.273 235.333 301.217 233.456C300.19 231.549 299.677 229.349 299.677 226.856C299.677 224.363 300.175 222.177 301.173 220.3C302.199 218.393 303.622 216.927 305.441 215.9C307.289 214.873 309.401 214.36 311.777 214.36C314.065 214.36 316.103 214.859 317.893 215.856C319.682 216.853 321.075 218.261 322.073 220.08C323.07 221.869 323.569 223.937 323.569 226.284ZM318.333 224.7C318.303 222.852 317.643 221.371 316.353 220.256C315.062 219.141 313.463 218.584 311.557 218.584C309.826 218.584 308.345 219.141 307.113 220.256C305.881 221.341 305.147 222.823 304.913 224.7H318.333ZM326.833 226.768C326.833 224.333 327.332 222.177 328.329 220.3C329.356 218.423 330.734 216.971 332.465 215.944C334.225 214.888 336.161 214.36 338.273 214.36C340.18 214.36 341.837 214.741 343.245 215.504C344.682 216.237 345.826 217.161 346.677 218.276V214.756H351.737V239H346.677V235.392C345.826 236.536 344.668 237.489 343.201 238.252C341.734 239.015 340.062 239.396 338.185 239.396C336.102 239.396 334.196 238.868 332.465 237.812C330.734 236.727 329.356 235.231 328.329 233.324C327.332 231.388 326.833 229.203 326.833 226.768ZM346.677 226.856C346.677 225.184 346.325 223.732 345.621 222.5C344.946 221.268 344.052 220.329 342.937 219.684C341.822 219.039 340.62 218.716 339.329 218.716C338.038 218.716 336.836 219.039 335.721 219.684C334.606 220.3 333.697 221.224 332.993 222.456C332.318 223.659 331.981 225.096 331.981 226.768C331.981 228.44 332.318 229.907 332.993 231.168C333.697 232.429 334.606 233.397 335.721 234.072C336.865 234.717 338.068 235.04 339.329 235.04C340.62 235.04 341.822 234.717 342.937 234.072C344.052 233.427 344.946 232.488 345.621 231.256C346.325 229.995 346.677 228.528 346.677 226.856ZM363.341 206.44V239H358.325V206.44H363.341ZM392.147 226.284C392.147 227.193 392.088 228.015 391.971 228.748H373.447C373.594 230.684 374.312 232.239 375.603 233.412C376.894 234.585 378.478 235.172 380.355 235.172C383.054 235.172 384.96 234.043 386.075 231.784H391.487C390.754 234.013 389.419 235.847 387.483 237.284C385.576 238.692 383.2 239.396 380.355 239.396C378.038 239.396 375.955 238.883 374.107 237.856C372.288 236.8 370.851 235.333 369.795 233.456C368.768 231.549 368.255 229.349 368.255 226.856C368.255 224.363 368.754 222.177 369.751 220.3C370.778 218.393 372.2 216.927 374.019 215.9C375.867 214.873 377.979 214.36 380.355 214.36C382.643 214.36 384.682 214.859 386.471 215.856C388.26 216.853 389.654 218.261 390.651 220.08C391.648 221.869 392.147 223.937 392.147 226.284ZM386.911 224.7C386.882 222.852 386.222 221.371 384.931 220.256C383.64 219.141 382.042 218.584 380.135 218.584C378.404 218.584 376.923 219.141 375.691 220.256C374.459 221.341 373.726 222.823 373.491 224.7H386.911ZM402.099 218.276C402.833 217.044 403.801 216.091 405.003 215.416C406.235 214.712 407.687 214.36 409.359 214.36V219.552H408.083C406.118 219.552 404.622 220.051 403.595 221.048C402.598 222.045 402.099 223.776 402.099 226.24V239H397.083V214.756H402.099V218.276ZM143.964 265L141.142 260.155H139.272V265H137.725V253.151H141.55C142.445 253.151 143.199 253.304 143.811 253.61C144.434 253.916 144.899 254.33 145.205 254.851C145.511 255.372 145.664 255.967 145.664 256.636C145.664 257.452 145.426 258.172 144.95 258.795C144.485 259.418 143.782 259.832 142.842 260.036L145.817 265H143.964ZM139.272 258.914H141.55C142.388 258.914 143.017 258.71 143.437 258.302C143.856 257.883 144.066 257.327 144.066 256.636C144.066 255.933 143.856 255.389 143.437 255.004C143.029 254.619 142.4 254.426 141.55 254.426H139.272V258.914ZM149.614 254.409V258.37H153.932V259.645H149.614V263.725H154.442V265H148.067V253.134H154.442V254.409H149.614ZM166.575 253.151L162.104 265H160.319L155.848 253.151H157.497L161.22 263.368L164.943 253.151H166.575ZM169.818 254.409V258.37H174.136V259.645H169.818V263.725H174.646V265H168.271V253.134H174.646V254.409H169.818ZM183.991 262.365H178.823L177.871 265H176.239L180.523 253.219H182.308L186.575 265H184.943L183.991 262.365ZM183.549 261.107L181.407 255.123L179.265 261.107H183.549ZM189.989 263.742H194.137V265H188.442V253.151H189.989V263.742ZM207.605 253.151V254.409H204.375V265H202.828V254.409H199.581V253.151H207.605ZM218.639 253.151V265H217.092V259.628H211.057V265H209.51V253.151H211.057V258.353H217.092V253.151H218.639ZM222.827 254.409V258.37H227.145V259.645H222.827V263.725H227.655V265H221.28V253.134H227.655V254.409H222.827ZM238.217 253.151C239.509 253.151 240.626 253.395 241.566 253.882C242.518 254.358 243.244 255.044 243.742 255.939C244.252 256.834 244.507 257.888 244.507 259.101C244.507 260.314 244.252 261.368 243.742 262.263C243.244 263.147 242.518 263.827 241.566 264.303C240.626 264.768 239.509 265 238.217 265H234.528V253.151H238.217ZM238.217 263.725C239.747 263.725 240.915 263.323 241.719 262.518C242.524 261.702 242.926 260.563 242.926 259.101C242.926 257.628 242.518 256.477 241.702 255.65C240.898 254.823 239.736 254.409 238.217 254.409H236.075V263.725H238.217ZM253.552 262.365H248.384L247.432 265H245.8L250.084 253.219H251.869L256.136 265H254.504L253.552 262.365ZM253.11 261.107L250.968 255.123L248.826 261.107H253.11ZM265.296 253.151V254.409H262.066V265H260.519V254.409H257.272V253.151H265.296ZM268.747 254.409V258.37H273.065V259.645H268.747V263.725H273.575V265H267.2V253.134H273.575V254.409H268.747ZM279.673 265.119C278.891 265.119 278.188 264.983 277.565 264.711C276.953 264.428 276.471 264.042 276.12 263.555C275.769 263.056 275.587 262.484 275.576 261.838H277.225C277.282 262.393 277.508 262.864 277.905 263.249C278.313 263.623 278.902 263.81 279.673 263.81C280.41 263.81 280.988 263.629 281.407 263.266C281.838 262.892 282.053 262.416 282.053 261.838C282.053 261.385 281.928 261.016 281.679 260.733C281.43 260.45 281.118 260.234 280.744 260.087C280.37 259.94 279.866 259.781 279.231 259.611C278.449 259.407 277.82 259.203 277.344 258.999C276.879 258.795 276.477 258.478 276.137 258.047C275.808 257.605 275.644 257.016 275.644 256.279C275.644 255.633 275.808 255.061 276.137 254.562C276.466 254.063 276.925 253.678 277.514 253.406C278.115 253.134 278.8 252.998 279.571 252.998C280.682 252.998 281.588 253.276 282.291 253.831C283.005 254.386 283.407 255.123 283.498 256.041H281.798C281.741 255.588 281.503 255.191 281.084 254.851C280.665 254.5 280.109 254.324 279.418 254.324C278.772 254.324 278.245 254.494 277.837 254.834C277.429 255.163 277.225 255.627 277.225 256.228C277.225 256.659 277.344 257.01 277.582 257.282C277.831 257.554 278.132 257.764 278.483 257.911C278.846 258.047 279.35 258.206 279.996 258.387C280.778 258.602 281.407 258.818 281.883 259.033C282.359 259.237 282.767 259.56 283.107 260.002C283.447 260.433 283.617 261.022 283.617 261.77C283.617 262.348 283.464 262.892 283.158 263.402C282.852 263.912 282.399 264.326 281.798 264.643C281.197 264.96 280.489 265.119 279.673 265.119Z" fill="url(#paint1_linear_1_2)"/>
<defs>
<linearGradient id="paint0_linear_1_2" x1="379" y1="339" x2="230.541" y2="154.612" gradientUnits="userSpaceOnUse">
<stop stop-color="#7A27BB"/>
<stop offset="1" stop-color="#A393B0"/>
</linearGradient>
<linearGradient id="paint1_linear_1_2" x1="38" y1="213.5" x2="758" y2="326" gradientUnits="userSpaceOnUse">
<stop stop-color="#E7E7E7"/>
<stop offset="1" stop-color="#440BBC"/>
</linearGradient>
</defs>
</svg>
